<mxfile host="app.diagrams.net" modified="2023-12-07T15:03:10.563Z" agent="Mozilla/5.0 (X11; Ubuntu; Linux x86_64; rv:120.0) Gecko/20100101 Firefox/120.0" etag="R3R3B-9J2vkzq7TKIgAA" version="22.1.7" type="device">
  <diagram name="Page-1" id="2afLw1SPVsDStBJi_gai">
    <mxGraphModel dx="1373" dy="731" grid="1" gridSize="10" guides="1" tooltips="1" connect="1" arrows="1" fold="1" page="1" pageScale="1" pageWidth="827" pageHeight="1169" math="0" shadow="0">
      <root>
        <mxCell id="0" />
        <mxCell id="1" parent="0" />
        <mxCell id="QTzP44NzgKvsPXYBdJU8-72" value="Without LLM" style="swimlane;whiteSpace=wrap;html=1;" vertex="1" parent="1">
          <mxGeometry x="20" y="270" width="270" height="320" as="geometry" />
        </mxCell>
        <mxCell id="QTzP44NzgKvsPXYBdJU8-11" value="" style="rounded=1;whiteSpace=wrap;html=1;" vertex="1" parent="1">
          <mxGeometry x="310" y="310" width="120" height="230" as="geometry" />
        </mxCell>
        <mxCell id="QTzP44NzgKvsPXYBdJU8-1" value="" style="shape=umlActor;verticalLabelPosition=bottom;verticalAlign=top;html=1;outlineConnect=0;" vertex="1" parent="1">
          <mxGeometry x="220" y="395" width="30" height="60" as="geometry" />
        </mxCell>
        <mxCell id="QTzP44NzgKvsPXYBdJU8-3" value="Simulation methods" style="rounded=0;whiteSpace=wrap;html=1;fillColor=#dae8fc;strokeColor=#6c8ebf;" vertex="1" parent="1">
          <mxGeometry x="327" y="340" width="86" height="40" as="geometry" />
        </mxCell>
        <mxCell id="QTzP44NzgKvsPXYBdJU8-4" value="Coding" style="rounded=0;whiteSpace=wrap;html=1;fillColor=#d5e8d4;strokeColor=#82b366;" vertex="1" parent="1">
          <mxGeometry x="327" y="390" width="86" height="40" as="geometry" />
        </mxCell>
        <mxCell id="QTzP44NzgKvsPXYBdJU8-5" value="Best practices" style="rounded=0;whiteSpace=wrap;html=1;fillColor=#f8cecc;strokeColor=#b85450;" vertex="1" parent="1">
          <mxGeometry x="327" y="490" width="86" height="40" as="geometry" />
        </mxCell>
        <mxCell id="QTzP44NzgKvsPXYBdJU8-6" value="Simulation software " style="rounded=0;whiteSpace=wrap;html=1;fillColor=#ffe6cc;strokeColor=#d79b00;" vertex="1" parent="1">
          <mxGeometry x="327" y="440" width="86" height="40" as="geometry" />
        </mxCell>
        <mxCell id="QTzP44NzgKvsPXYBdJU8-12" value="Modeller training" style="text;strokeColor=none;align=center;fillColor=none;html=1;verticalAlign=middle;whiteSpace=wrap;rounded=0;" vertex="1" parent="1">
          <mxGeometry x="320" y="310" width="100" height="30" as="geometry" />
        </mxCell>
        <mxCell id="QTzP44NzgKvsPXYBdJU8-13" style="edgeStyle=orthogonalEdgeStyle;rounded=0;orthogonalLoop=1;jettySize=auto;html=1;exitX=0.5;exitY=1;exitDx=0;exitDy=0;" edge="1" parent="1" source="QTzP44NzgKvsPXYBdJU8-11" target="QTzP44NzgKvsPXYBdJU8-11">
          <mxGeometry relative="1" as="geometry" />
        </mxCell>
        <mxCell id="QTzP44NzgKvsPXYBdJU8-14" value="Coded Model" style="rounded=0;whiteSpace=wrap;html=1;" vertex="1" parent="1">
          <mxGeometry x="30" y="410" width="100" height="55" as="geometry" />
        </mxCell>
        <mxCell id="QTzP44NzgKvsPXYBdJU8-15" value="Published textual description of model" style="shape=cylinder3;whiteSpace=wrap;html=1;boundedLbl=1;backgroundOutline=1;size=15;" vertex="1" parent="1">
          <mxGeometry x="331.5" y="550" width="77" height="110" as="geometry" />
        </mxCell>
        <mxCell id="QTzP44NzgKvsPXYBdJU8-22" style="edgeStyle=orthogonalEdgeStyle;rounded=0;orthogonalLoop=1;jettySize=auto;html=1;exitX=1;exitY=0.5;exitDx=0;exitDy=0;" edge="1" parent="1" source="QTzP44NzgKvsPXYBdJU8-16">
          <mxGeometry relative="1" as="geometry">
            <mxPoint x="220" y="460" as="targetPoint" />
          </mxGeometry>
        </mxCell>
        <mxCell id="QTzP44NzgKvsPXYBdJU8-16" value="Test new detail + regression testing" style="rounded=1;whiteSpace=wrap;html=1;" vertex="1" parent="1">
          <mxGeometry x="100" y="510" width="100" height="40" as="geometry" />
        </mxCell>
        <mxCell id="QTzP44NzgKvsPXYBdJU8-19" style="edgeStyle=orthogonalEdgeStyle;rounded=0;orthogonalLoop=1;jettySize=auto;html=1;exitX=0.5;exitY=0;exitDx=0;exitDy=0;exitPerimeter=0;entryX=0.5;entryY=0;entryDx=0;entryDy=0;" edge="1" parent="1" source="QTzP44NzgKvsPXYBdJU8-1" target="QTzP44NzgKvsPXYBdJU8-14">
          <mxGeometry relative="1" as="geometry">
            <mxPoint x="90" y="380" as="targetPoint" />
            <Array as="points">
              <mxPoint x="235" y="340" />
              <mxPoint x="80" y="340" />
            </Array>
          </mxGeometry>
        </mxCell>
        <mxCell id="QTzP44NzgKvsPXYBdJU8-20" style="edgeStyle=orthogonalEdgeStyle;rounded=0;orthogonalLoop=1;jettySize=auto;html=1;exitX=0.5;exitY=1;exitDx=0;exitDy=0;entryX=0;entryY=0.5;entryDx=0;entryDy=0;" edge="1" parent="1" source="QTzP44NzgKvsPXYBdJU8-14" target="QTzP44NzgKvsPXYBdJU8-16">
          <mxGeometry relative="1" as="geometry" />
        </mxCell>
        <mxCell id="QTzP44NzgKvsPXYBdJU8-23" value="Manually code detail" style="text;strokeColor=none;align=center;fillColor=none;html=1;verticalAlign=middle;whiteSpace=wrap;rounded=0;" vertex="1" parent="1">
          <mxGeometry x="100" y="310" width="120" height="30" as="geometry" />
        </mxCell>
        <mxCell id="QTzP44NzgKvsPXYBdJU8-26" value="" style="endArrow=classic;startArrow=classic;html=1;rounded=0;entryX=0;entryY=0.5;entryDx=0;entryDy=0;" edge="1" parent="1" source="QTzP44NzgKvsPXYBdJU8-1" target="QTzP44NzgKvsPXYBdJU8-11">
          <mxGeometry width="50" height="50" relative="1" as="geometry">
            <mxPoint x="240" y="540" as="sourcePoint" />
            <mxPoint x="290" y="490" as="targetPoint" />
          </mxGeometry>
        </mxCell>
        <mxCell id="QTzP44NzgKvsPXYBdJU8-28" value="" style="endArrow=classic;html=1;rounded=0;exitX=-0.014;exitY=0.538;exitDx=0;exitDy=0;exitPerimeter=0;startArrow=classic;startFill=1;" edge="1" parent="1" source="QTzP44NzgKvsPXYBdJU8-15">
          <mxGeometry width="50" height="50" relative="1" as="geometry">
            <mxPoint x="240" y="540" as="sourcePoint" />
            <mxPoint x="250" y="460" as="targetPoint" />
            <Array as="points">
              <mxPoint x="250" y="609" />
            </Array>
          </mxGeometry>
        </mxCell>
        <mxCell id="QTzP44NzgKvsPXYBdJU8-47" style="edgeStyle=orthogonalEdgeStyle;rounded=0;orthogonalLoop=1;jettySize=auto;html=1;exitX=1;exitY=0.5;exitDx=0;exitDy=0;entryX=0;entryY=0.5;entryDx=0;entryDy=0;" edge="1" parent="1" source="QTzP44NzgKvsPXYBdJU8-38" target="QTzP44NzgKvsPXYBdJU8-55">
          <mxGeometry relative="1" as="geometry">
            <mxPoint x="704.3999999999999" y="341.9375" as="targetPoint" />
          </mxGeometry>
        </mxCell>
        <mxCell id="QTzP44NzgKvsPXYBdJU8-38" value="Prompt engineering" style="rounded=0;whiteSpace=wrap;html=1;" vertex="1" parent="1">
          <mxGeometry x="540" y="310" width="100" height="60" as="geometry" />
        </mxCell>
        <mxCell id="QTzP44NzgKvsPXYBdJU8-44" style="edgeStyle=orthogonalEdgeStyle;rounded=0;orthogonalLoop=1;jettySize=auto;html=1;exitX=0.5;exitY=0;exitDx=0;exitDy=0;exitPerimeter=0;entryX=0;entryY=0.5;entryDx=0;entryDy=0;" edge="1" parent="1" source="QTzP44NzgKvsPXYBdJU8-30" target="QTzP44NzgKvsPXYBdJU8-38">
          <mxGeometry relative="1" as="geometry">
            <Array as="points">
              <mxPoint x="505" y="340" />
              <mxPoint x="540" y="340" />
            </Array>
          </mxGeometry>
        </mxCell>
        <mxCell id="QTzP44NzgKvsPXYBdJU8-30" value="" style="shape=umlActor;verticalLabelPosition=bottom;verticalAlign=top;html=1;outlineConnect=0;" vertex="1" parent="1">
          <mxGeometry x="490" y="395" width="30" height="60" as="geometry" />
        </mxCell>
        <mxCell id="QTzP44NzgKvsPXYBdJU8-31" value="Coded Model" style="rounded=0;whiteSpace=wrap;html=1;" vertex="1" parent="1">
          <mxGeometry x="690" y="410" width="100" height="55" as="geometry" />
        </mxCell>
        <mxCell id="QTzP44NzgKvsPXYBdJU8-32" style="edgeStyle=orthogonalEdgeStyle;rounded=0;orthogonalLoop=1;jettySize=auto;html=1;exitX=-0.032;exitY=0.505;exitDx=0;exitDy=0;exitPerimeter=0;" edge="1" parent="1" source="QTzP44NzgKvsPXYBdJU8-33">
          <mxGeometry relative="1" as="geometry">
            <mxPoint x="520" y="462.5" as="targetPoint" />
          </mxGeometry>
        </mxCell>
        <mxCell id="QTzP44NzgKvsPXYBdJU8-33" value="Test new detail + regression testing" style="rounded=1;whiteSpace=wrap;html=1;" vertex="1" parent="1">
          <mxGeometry x="570" y="510" width="100" height="40" as="geometry" />
        </mxCell>
        <mxCell id="QTzP44NzgKvsPXYBdJU8-35" style="edgeStyle=orthogonalEdgeStyle;rounded=0;orthogonalLoop=1;jettySize=auto;html=1;exitX=0.5;exitY=1;exitDx=0;exitDy=0;entryX=1;entryY=0.5;entryDx=0;entryDy=0;" edge="1" parent="1" source="QTzP44NzgKvsPXYBdJU8-31" target="QTzP44NzgKvsPXYBdJU8-33">
          <mxGeometry relative="1" as="geometry">
            <mxPoint x="827" y="511.5" as="sourcePoint" />
            <mxPoint x="707" y="576.5" as="targetPoint" />
          </mxGeometry>
        </mxCell>
        <mxCell id="QTzP44NzgKvsPXYBdJU8-39" style="edgeStyle=orthogonalEdgeStyle;rounded=0;orthogonalLoop=1;jettySize=auto;html=1;exitX=0.998;exitY=0.541;exitDx=0;exitDy=0;exitPerimeter=0;startArrow=classic;startFill=1;" edge="1" parent="1" source="QTzP44NzgKvsPXYBdJU8-15">
          <mxGeometry relative="1" as="geometry">
            <mxPoint x="490" y="460" as="targetPoint" />
          </mxGeometry>
        </mxCell>
        <mxCell id="QTzP44NzgKvsPXYBdJU8-42" value="Select model detail" style="text;strokeColor=none;align=center;fillColor=none;html=1;verticalAlign=middle;whiteSpace=wrap;rounded=0;" vertex="1" parent="1">
          <mxGeometry x="247" y="620" width="80" height="30" as="geometry" />
        </mxCell>
        <mxCell id="QTzP44NzgKvsPXYBdJU8-43" value="Select model detail" style="text;strokeColor=none;align=center;fillColor=none;html=1;verticalAlign=middle;whiteSpace=wrap;rounded=0;" vertex="1" parent="1">
          <mxGeometry x="414" y="620" width="80" height="30" as="geometry" />
        </mxCell>
        <mxCell id="QTzP44NzgKvsPXYBdJU8-50" style="edgeStyle=orthogonalEdgeStyle;rounded=0;orthogonalLoop=1;jettySize=auto;html=1;exitX=0.5;exitY=1;exitDx=0;exitDy=0;" edge="1" parent="1" source="QTzP44NzgKvsPXYBdJU8-55" target="QTzP44NzgKvsPXYBdJU8-31">
          <mxGeometry relative="1" as="geometry">
            <mxPoint x="739.5" y="372.4375" as="sourcePoint" />
          </mxGeometry>
        </mxCell>
        <mxCell id="QTzP44NzgKvsPXYBdJU8-49" value="" style="endArrow=classic;startArrow=classic;html=1;rounded=0;entryX=0;entryY=0.5;entryDx=0;entryDy=0;" edge="1" parent="1">
          <mxGeometry width="50" height="50" relative="1" as="geometry">
            <mxPoint x="430" y="424.71" as="sourcePoint" />
            <mxPoint x="490" y="424.71" as="targetPoint" />
          </mxGeometry>
        </mxCell>
        <mxCell id="QTzP44NzgKvsPXYBdJU8-51" value="&lt;div&gt;Chat&lt;/div&gt;&lt;div&gt;input&lt;br&gt;&lt;/div&gt;" style="text;strokeColor=none;align=center;fillColor=none;html=1;verticalAlign=middle;whiteSpace=wrap;rounded=0;" vertex="1" parent="1">
          <mxGeometry x="630" y="300" width="60" height="30" as="geometry" />
        </mxCell>
        <mxCell id="QTzP44NzgKvsPXYBdJU8-54" value="Iterative recreation of a DE model from a paper" style="text;strokeColor=none;align=center;fillColor=none;html=1;verticalAlign=middle;whiteSpace=wrap;rounded=0;fontStyle=4" vertex="1" parent="1">
          <mxGeometry x="247" y="220" width="270" height="30" as="geometry" />
        </mxCell>
        <mxCell id="QTzP44NzgKvsPXYBdJU8-55" value="LLM" style="rounded=0;whiteSpace=wrap;html=1;" vertex="1" parent="1">
          <mxGeometry x="690" y="310" width="100" height="60" as="geometry" />
        </mxCell>
        <mxCell id="QTzP44NzgKvsPXYBdJU8-73" value="With LLM" style="swimlane;whiteSpace=wrap;html=1;" vertex="1" parent="1">
          <mxGeometry x="455" y="265" width="355" height="320" as="geometry" />
        </mxCell>
      </root>
    </mxGraphModel>
  </diagram>
</mxfile>
